<svg width="223" height="165" viewBox="0 0 223 165" fill="none" xmlns="http://www.w3.org/2000/svg">
<path d="M182.943 130.014C180.943 130.174 179.245 131.799 179.32 133.87C179.386 135.649 180.985 137.205 182.734 136.884C182.747 136.89 182.756 136.899 182.771 136.902C187.521 138.107 187.923 129.614 182.943 130.014ZM183.754 136.563C183.754 136.563 183.739 136.554 183.727 136.554C183.657 136.554 183.588 136.563 183.519 136.573C183.314 136.573 183.102 136.554 182.882 136.5C182.792 136.479 182.722 136.512 182.677 136.57C179.04 136.433 178.813 131.37 182.451 130.504C184.122 130.108 185.654 131.07 186.101 132.72C186.574 134.475 185.476 136.409 183.754 136.566V136.563Z" fill="#3C3C3B"/>
<path d="M188.028 146.249C187.85 144.121 187.368 142.045 186.472 140.102C185.847 138.743 185.066 137.732 183.449 137.935C179.498 138.428 179.021 143.367 179.254 146.452C179.266 146.624 179.516 146.627 179.522 146.452C179.622 143.613 179.61 139.36 183.084 138.449C186.472 137.562 187.346 143.788 187.549 146.158C186.137 146.107 184.716 146.191 183.308 146.252C182.029 146.309 180.695 146.267 179.459 146.612C179.383 146.633 179.371 146.763 179.459 146.776C180.726 146.954 182.032 146.776 183.308 146.724C184.78 146.667 186.261 146.682 187.726 146.57C187.811 146.564 187.865 146.518 187.895 146.461C187.977 146.434 188.037 146.361 188.025 146.249H188.028Z" fill="#3C3C3B"/>
<path d="M199.418 147.293C197.418 147.454 195.72 149.079 195.795 151.149C195.861 152.929 197.46 154.485 199.209 154.164C199.222 154.17 199.231 154.179 199.246 154.182C203.996 155.387 204.398 146.894 199.418 147.293ZM200.229 153.843C200.229 153.843 200.214 153.834 200.202 153.834C200.132 153.834 200.063 153.843 199.994 153.852C199.789 153.852 199.577 153.834 199.357 153.779C199.267 153.758 199.197 153.791 199.152 153.849C195.515 153.713 195.288 148.649 198.926 147.783C200.597 147.387 202.129 148.349 202.576 149.999C203.049 151.754 201.951 153.689 200.229 153.846V153.843Z" fill="#3C3C3B"/>
<path d="M204.503 163.528C204.325 161.401 203.843 159.324 202.947 157.381C202.322 156.022 201.541 155.011 199.924 155.214C195.973 155.707 195.496 160.647 195.729 163.731C195.741 163.904 195.991 163.907 195.997 163.731C196.097 160.892 196.085 156.64 199.559 155.729C202.947 154.842 203.821 161.068 204.023 163.438C202.612 163.386 201.191 163.471 199.783 163.531C198.504 163.589 197.17 163.546 195.934 163.892C195.858 163.913 195.846 164.043 195.934 164.055C197.201 164.234 198.507 164.055 199.783 164.004C201.255 163.946 202.736 163.961 204.201 163.849C204.286 163.843 204.34 163.798 204.37 163.74C204.452 163.713 204.512 163.64 204.5 163.528H204.503Z" fill="#3C3C3B"/>
<path d="M167.737 147.738C165.738 147.898 164.04 149.524 164.115 151.594C164.181 153.374 165.78 154.929 167.529 154.609C167.541 154.615 167.55 154.624 167.566 154.627C172.316 155.831 172.717 147.339 167.737 147.738ZM168.549 154.288C168.549 154.288 168.534 154.279 168.522 154.279C168.452 154.279 168.383 154.288 168.314 154.297C168.108 154.297 167.897 154.279 167.677 154.224C167.587 154.203 167.517 154.236 167.472 154.294C163.834 154.158 163.608 149.094 167.246 148.228C168.917 147.832 170.449 148.794 170.896 150.444C171.369 152.199 170.271 154.133 168.549 154.291V154.288Z" fill="#3C3C3B"/>
<path d="M172.823 163.973C172.645 161.845 172.162 159.769 171.267 157.826C170.642 156.467 169.861 155.456 168.244 155.659C164.293 156.152 163.816 161.092 164.049 164.176C164.061 164.349 164.311 164.352 164.317 164.176C164.417 161.337 164.404 157.084 167.879 156.173C171.267 155.287 172.141 161.513 172.343 163.882C170.932 163.831 169.511 163.916 168.102 163.976C166.824 164.034 165.49 163.991 164.254 164.336C164.178 164.358 164.166 164.488 164.254 164.5C165.521 164.678 166.827 164.5 168.102 164.448C169.574 164.391 171.055 164.406 172.521 164.294C172.606 164.288 172.66 164.243 172.69 164.185C172.772 164.158 172.832 164.085 172.82 163.973H172.823Z" fill="#3C3C3B"/>
<path d="M197.388 143.395C197.164 143.94 196.962 144.493 196.763 145.044C196.033 142.127 193.681 139.878 190.628 139.626C191.156 139.493 191.699 139.36 192.172 139.133C192.384 139.033 192.287 138.652 192.052 138.682C191.334 138.767 190.601 139.067 189.904 139.269C189.732 139.321 189.624 139.584 189.787 139.714C190.372 140.171 190.957 140.64 191.575 141.043C191.744 141.155 191.922 140.91 191.786 140.768C191.554 140.522 191.304 140.289 191.047 140.068C193.584 140.725 195.512 142.423 196.211 144.978L195.403 144.285C195.147 144.067 194.776 144.433 195.032 144.657C195.545 145.105 196.06 145.556 196.573 146.004C196.73 146.14 196.944 146.079 197.014 145.886C197.303 145.102 197.608 144.321 197.867 143.525C197.97 143.21 197.502 143.101 197.385 143.392L197.388 143.395Z" fill="#3C3C3B"/>
<path d="M180.558 164.612C180.347 164.064 180.115 163.522 179.879 162.984C182.41 164.597 185.659 164.603 188.048 162.675C187.755 163.135 187.453 163.607 187.263 164.1C187.179 164.318 187.511 164.527 187.662 164.343C188.123 163.783 188.452 163.062 188.817 162.436C188.907 162.281 188.805 162.012 188.597 162.033C187.861 162.106 187.116 162.169 186.386 162.306C186.187 162.342 186.226 162.642 186.422 162.651C186.76 162.669 187.097 162.663 187.438 162.651C185.149 163.928 182.585 164.025 180.326 162.657L181.388 162.599C181.722 162.581 181.741 162.057 181.403 162.073C180.721 162.103 180.039 162.13 179.361 162.16C179.153 162.169 179.041 162.36 179.119 162.551C179.448 163.32 179.762 164.097 180.118 164.851C180.26 165.151 180.673 164.909 180.558 164.615V164.612Z" fill="#3C3C3B"/>
<path d="M174.72 138.891C175.242 139.157 175.776 139.402 176.31 139.648C173.351 140.144 170.932 142.32 170.44 145.353C170.35 144.814 170.259 144.26 170.075 143.767C169.994 143.549 169.608 143.613 169.617 143.852C169.644 144.578 169.882 145.335 170.03 146.046C170.066 146.222 170.322 146.352 170.461 146.197C170.959 145.65 171.472 145.102 171.924 144.515C172.048 144.354 171.819 144.157 171.668 144.282C171.405 144.493 171.155 144.726 170.914 144.966C171.767 142.481 173.607 140.689 176.201 140.192L175.45 140.946C175.212 141.185 175.547 141.585 175.791 141.346C176.28 140.867 176.765 140.389 177.251 139.911C177.399 139.766 177.356 139.548 177.169 139.46C176.412 139.106 175.661 138.743 174.892 138.419C174.588 138.292 174.443 138.749 174.72 138.891Z" fill="#3C3C3B"/>
<path d="M53.9516 0.985739C53.3483 0.670962 52.745 0.386452 52.1689 0.0232483C52.0784 -0.034259 51.9789 0.0232485 51.9367 0.104969C51.9005 0.120103 51.8703 0.14129 51.8492 0.183664C50.884 2.02087 50.1601 4.00941 49.2884 5.89505C48.5735 7.44472 47.7923 8.96715 47.1378 10.5441C46.9869 10.0689 46.7999 9.60275 46.6371 9.13664C46.4983 8.74317 46.4169 8.18323 46.1484 7.85938C45.9976 7.67777 45.8347 7.63843 45.6025 7.65053C45.1289 7.6808 44.4774 7.9532 44.0732 8.19534C44.0068 8.23469 44.0068 8.32851 44.0521 8.37997C44.0461 8.40418 44.043 8.43142 44.0521 8.46169C44.3145 9.62999 44.6312 10.7862 44.954 11.9394C45.0535 12.2995 45.1681 13.3347 45.5753 13.598C46.1876 13.9915 47.9431 13.825 48.4921 13.3347C49.0441 12.8443 49.3457 11.7941 49.6654 11.1585C50.1902 10.1143 50.706 9.06703 51.2128 8.01374C52.2685 5.81938 53.2759 3.60383 54.2502 1.37316C54.3467 1.14918 54.1265 0.946392 53.9546 0.985739H53.9516ZM49.6171 10.1173C48.9747 11.4127 48.471 13.4043 46.6974 13.1924C46.1122 13.1228 45.9041 13.029 45.5964 12.3843C45.3974 11.9666 45.3099 11.3976 45.1802 10.9466C44.9298 10.087 44.6674 9.2335 44.3718 8.38905C44.6041 8.3497 44.8243 8.27706 45.0565 8.21047C45.3702 8.11967 45.6145 7.96228 45.9041 8.28311C46.0187 8.41023 46.0579 8.72804 46.1122 8.88543C46.3686 9.62697 46.5888 10.4018 46.9085 11.1191C46.8965 11.1645 46.9176 11.2009 46.9538 11.219C47.0503 11.4036 47.3368 11.2644 47.2886 11.0677C47.2795 11.0223 47.2644 10.9799 47.2524 10.9375C48.287 9.2456 49.1014 7.41142 49.9308 5.61054C50.7121 3.91558 51.5777 2.19945 52.1629 0.422773C52.6395 0.779924 53.1613 1.10681 53.7163 1.31565C52.4193 4.28182 51.0559 7.21771 49.6171 10.1143V10.1173Z" fill="#3C3C3B"/>
<path d="M52.1357 8.7462C52.1418 8.39813 51.6019 8.39813 51.5958 8.7462C51.5777 9.84792 51.5566 10.9466 51.5385 12.0483C51.5325 12.469 51.6833 13.2984 51.5084 13.7009C51.1313 14.5726 50.4225 14.4334 49.6895 14.4939C48.5252 14.5877 47.361 14.6543 46.1936 14.6906C45.2435 14.7209 43.2377 15.1416 42.921 14.1398C42.6224 13.1985 42.7973 11.7093 42.746 10.7166C42.6917 9.64513 42.5922 8.56157 42.6344 7.49012C42.7068 5.54092 43.0537 5.52276 44.8243 5.56211C46.1032 5.58935 47.3972 5.6741 48.673 5.58027C48.9324 5.56211 48.9234 5.21101 48.673 5.18074C46.7245 4.94769 44.7127 5.0173 42.7521 4.9719C42.6284 4.9719 42.5289 5.05968 42.4927 5.17167C41.5154 8.19534 42.2664 11.8788 42.4263 14.9963C42.4323 15.1446 42.5439 15.2657 42.6978 15.2687C44.2542 15.2839 45.8106 15.2627 47.364 15.187C48.1422 15.1477 48.9174 15.0992 49.6926 15.0357C50.2204 14.9933 51.1886 15.0962 51.6471 14.8117C52.1689 14.4909 52.0453 14.0641 52.0573 13.4255L52.1388 8.7462H52.1357Z" fill="#3C3C3B"/>
<path d="M217.043 14.1638C216.31 12.9259 214.769 12.4961 213.55 13.1711C213.493 13.1045 213.403 13.0682 213.297 13.1106C213.056 13.2044 212.811 13.3012 212.57 13.3951C212.561 13.389 212.552 13.383 212.54 13.3769C212.477 13.3406 212.419 13.3981 212.41 13.4586C208.649 14.9387 204.885 16.4127 201.126 17.8988C197.087 19.4939 192.925 20.9315 188.995 22.7839C188.968 22.796 188.952 22.8142 188.94 22.8353C186.992 23.9159 185.324 25.405 183.921 27.1363C183.801 27.2846 183.903 27.4783 184.069 27.5207C186.304 28.1048 188.66 28.5044 190.976 28.3863C191.01 28.3863 191.037 28.3712 191.055 28.35C191.082 28.347 191.106 28.3349 191.124 28.3046C191.124 28.3046 191.124 28.3046 191.127 28.3046C199.341 25.2597 207.509 21.8819 215.571 18.4527C215.604 18.4375 215.629 18.4194 215.65 18.3982C215.716 18.4315 215.791 18.4285 215.849 18.3921C215.9 18.4103 215.96 18.4043 216.015 18.3619C217.3 17.3722 217.915 15.6469 217.037 14.1669L217.043 14.1638ZM201.292 18.3225C205.123 16.8273 208.95 15.3231 212.781 13.8249C213.11 14.1306 213.372 14.4635 213.59 14.8206C205.774 17.9624 197.92 21.0345 190.174 24.3487C190.34 24.0944 190.4 23.7797 190.286 23.474C190.168 23.1622 189.854 22.9171 189.52 22.8505C193.504 21.549 197.392 19.845 201.295 18.3225H201.292ZM206.697 18.2045C206.619 18.2317 206.543 18.2559 206.465 18.2832C206.456 18.2862 206.453 18.2923 206.444 18.2953C206.444 18.2953 206.438 18.2953 206.435 18.2953C205.72 18.5737 205.002 18.8522 204.287 19.1307C205.087 18.8098 205.883 18.486 206.679 18.1621C206.685 18.1742 206.691 18.1894 206.697 18.2015V18.2045ZM186.527 26.2918C186.527 26.2646 186.515 26.2404 186.506 26.2192C186.506 26.2071 186.503 26.192 186.5 26.1798C186.551 26.3342 186.585 26.4704 186.594 26.5249C186.618 26.7035 186.609 26.876 186.579 27.0455C186.57 26.7943 186.548 26.543 186.527 26.2888V26.2918ZM191.007 28.0019C190.955 28.0292 190.928 28.0685 190.919 28.1139C189.474 27.9565 188.054 27.7961 186.639 27.557C186.892 27.0697 186.953 26.4886 186.757 25.965C186.684 25.7682 186.509 25.4625 186.295 25.3172C187.173 24.5212 188.117 23.8069 189.13 23.141C189.492 23.1168 189.866 23.1955 190.017 23.5769C190.165 23.9492 189.963 24.3487 189.634 24.5333C189.592 24.5575 189.583 24.5969 189.589 24.6362C189.565 24.7361 189.664 24.8542 189.782 24.8118C190.225 24.6514 190.789 24.7149 190.991 25.2174C191.124 25.5503 191.004 25.9014 190.768 26.1375C190.663 26.1829 190.557 26.2252 190.452 26.2706C190.388 26.2979 190.361 26.3463 190.352 26.3978C190.307 26.4371 190.322 26.5067 190.373 26.537C190.334 26.6036 190.349 26.7004 190.443 26.7095C191.206 26.767 191.163 27.4238 191.004 27.9959L191.007 28.0019ZM214.546 18.3135C206.752 21.3492 198.933 24.4909 191.29 27.8748C191.39 27.5509 191.429 27.2089 191.266 26.9032C191.178 26.7398 191.016 26.5794 190.829 26.5007C194.756 25.0539 198.629 23.4558 202.517 21.9092C206.465 20.3353 210.513 18.9006 214.389 17.1512C214.455 17.5295 214.506 17.92 214.549 18.3135H214.546ZM215.529 17.9714C215.487 17.9624 215.445 17.9624 215.393 17.9835C215.23 18.0471 215.068 18.1107 214.905 18.1742C214.844 17.0967 214.633 15.995 214.138 15.0658C214.193 14.9175 214.093 14.7268 213.93 14.7117C213.689 14.3424 213.399 14.0065 213.041 13.7219C213.134 13.6856 213.225 13.6493 213.318 13.613C213.351 13.619 213.39 13.613 213.427 13.5948C213.469 13.5706 213.511 13.5494 213.553 13.5282C214.033 14.1699 214.591 14.6875 214.956 15.432C215.345 16.2281 215.526 17.0907 215.529 17.9714ZM215.93 17.92C215.9 16.3037 215.252 14.2395 213.783 13.4223C214.956 12.9501 216.292 13.386 216.844 14.633C217.384 15.8497 216.877 17.1088 215.93 17.917V17.92Z" fill="#3C3C3B"/>
<path d="M215.972 36.2576C215.969 36.0185 215.713 35.9458 215.556 36.0397C214.06 36.2364 212.561 36.3605 211.056 36.4634C211.011 36.4664 210.974 36.4846 210.947 36.5058C210.8 36.4816 210.643 36.5633 210.658 36.754C210.878 39.2237 211.095 41.6905 211.282 44.1633C211.451 46.397 211.324 48.8487 211.858 51.0249C211.876 51.0975 211.934 51.1217 211.985 51.1126C211.952 51.2216 212.027 51.3729 212.163 51.382C213.357 51.4698 214.585 51.382 215.782 51.3275C215.951 51.3215 216.039 51.1853 216.039 51.0521C216.111 51.1732 216.316 51.158 216.322 50.9825C216.485 46.0974 216.048 41.1487 215.975 36.2576H215.972ZM215.779 50.7918C214.564 50.8251 213.315 50.8311 212.112 51.0067C212.103 51.0067 212.1 51.0127 212.094 51.0127C212.094 51.0067 212.1 50.9976 212.1 50.9885C212.404 48.7034 211.958 46.1609 211.795 43.8637C211.629 41.524 211.433 39.1844 211.204 36.8508C212.621 36.8599 214.039 36.7419 215.442 36.5391C215.514 41.3001 215.414 46.1973 216.009 50.9219C215.969 50.8433 215.897 50.7857 215.782 50.7888L215.779 50.7918Z" fill="#3C3C3B"/>
<path d="M215.828 55.0594C215.813 54.4692 215.764 53.8851 215.689 53.3009C215.674 53.1799 215.595 53.0588 215.454 53.0649C214.642 53.1133 213.825 53.1496 213.023 53.2586C212.956 53.2676 212.92 53.31 212.908 53.3615C212.796 53.3463 212.676 53.3978 212.639 53.5279C212.434 54.2604 212.462 55.0746 212.54 55.8222C212.555 55.9614 212.646 56.0825 212.799 56.0825C213.363 56.0825 213.924 56.0825 214.488 56.0825C214.811 56.0825 215.405 56.2096 215.68 55.9765C215.921 55.7707 215.837 55.3288 215.831 55.0594H215.828ZM215.333 55.5831C215.264 55.6497 214.784 55.577 214.7 55.577C214.488 55.577 214.277 55.577 214.066 55.574C213.725 55.574 213.385 55.571 213.044 55.5679C213.004 54.9051 213.065 54.2665 213.107 53.5976C213.819 53.6187 214.534 53.5824 215.246 53.5491C215.279 53.879 215.309 54.212 215.324 54.5449C215.333 54.7416 215.457 55.468 215.333 55.5861V55.5831Z" fill="#3C3C3B"/>
<path d="M49.1812 161.552C49.1691 161.515 49.1661 161.479 49.16 161.443C49.1932 161.403 49.2173 161.358 49.2204 161.291C49.338 158.57 49.4466 155.816 48.9851 153.119C48.7016 151.461 48.1224 149.651 46.4182 149.118C48.2763 148.274 49.5914 146.485 49.4466 144.306C49.2716 141.687 46.9853 139.784 44.3883 140.02C41.8485 140.25 39.897 142.58 39.888 145.105C39.8789 146.969 40.8773 148.186 42.2678 148.87C39.5562 149.993 37.1311 151.866 35.448 154.288C35.4329 154.273 35.4238 154.257 35.4088 154.242C35.3907 154.227 35.3726 154.218 35.3545 154.209C35.3545 154.209 35.3545 154.203 35.3484 154.2C33.786 152.348 31.4996 149.345 28.8453 148.843C30.0699 148.122 30.8692 146.639 30.8542 145.08C30.83 142.29 28.9539 139.835 26.0341 140.041C23.4552 140.223 21.193 142.208 21.2654 144.908C21.3197 146.896 22.6016 148.231 24.2666 148.749C22.9575 149.309 22.1431 150.686 21.754 152.054C21.021 154.63 20.9879 157.508 20.8793 160.165C20.8732 160.311 20.9849 160.423 21.1236 160.435C24.0946 160.713 27.0687 160.889 30.0518 160.971C30.1423 160.971 30.2057 160.934 30.2479 160.88C30.3535 160.983 30.5616 160.946 30.5797 160.756C30.8059 158.622 30.9446 155.892 30.0579 153.837C30.4681 154.167 30.9205 154.457 31.3307 154.784C31.943 155.271 32.5011 155.819 33.1013 156.316C33.1556 156.361 33.2159 156.367 33.2672 156.352C33.8644 156.803 34.6818 156.954 35.3092 156.458C36.7178 157.856 39.3269 156.016 40.7657 154.808C40.3132 156.942 40.1293 159.167 40.081 161.337C40.078 161.528 40.2499 161.609 40.3887 161.576C40.4007 161.603 40.4218 161.624 40.455 161.633C41.7219 161.921 43.0551 161.879 44.3521 161.933C45.8361 161.994 47.3382 162.124 48.8222 162.057C48.9308 162.051 48.9971 161.988 49.0243 161.912C49.0454 161.9 49.0635 161.882 49.0786 161.86C49.0907 161.866 49.0997 161.873 49.1118 161.876C49.1721 161.891 49.2173 161.854 49.2294 161.794C49.2445 161.709 49.2083 161.627 49.1842 161.546L49.1812 161.552ZM40.461 145.525C40.2439 143.264 41.8063 141.028 44.0565 140.586C46.3398 140.138 48.5779 141.687 48.9187 143.997C49.2958 146.576 47.3653 148.61 44.9644 149.067C44.901 149.079 44.8588 149.112 44.8286 149.151C42.7866 148.712 40.6963 147.965 40.4641 145.528L40.461 145.525ZM21.8023 144.938C21.7208 142.829 23.2983 141.152 25.277 140.686C31.0834 139.324 31.6112 148.098 27.7202 148.788C27.681 148.791 27.6448 148.794 27.6056 148.797C27.5905 148.797 27.5785 148.803 27.5694 148.809C27.2497 148.849 26.8998 148.834 26.5228 148.758C26.5016 148.728 26.4715 148.706 26.4323 148.703C24.2062 148.437 21.9048 147.571 21.8023 144.935V144.938ZM34.9412 156.219C34.4285 156.533 33.8855 156.322 33.415 156.04C33.4059 156.022 33.3999 156.004 33.3848 155.989C32.483 154.95 31.0804 153.761 29.7743 153.307C29.6869 153.277 29.6084 153.374 29.6386 153.452C29.6175 153.48 29.6114 153.516 29.6235 153.555C30.3233 155.837 30.1544 158.15 30.1845 160.498C30.1544 160.483 30.1182 160.471 30.076 160.471C28.2873 160.42 26.4986 160.341 24.716 160.22C23.9137 160.165 22.7916 160.265 22.0406 160.008C21.1236 159.693 21.4463 158.77 21.5006 157.898C21.6997 154.739 21.5911 150.374 24.9121 148.909C25.2529 148.97 25.6028 149.003 25.9587 149C25.9798 149.054 26.0221 149.103 26.0944 149.124C26.8877 149.381 27.6358 149.351 28.2933 149.109C31.0502 149.569 33.3124 152.538 35.0076 154.518C35.0498 154.566 35.0981 154.587 35.1463 154.593C35.5475 155.102 35.5505 155.849 34.9442 156.222L34.9412 156.219ZM44.3792 161.412C43.1154 161.367 41.8184 161.228 40.5606 161.394C40.5606 161.385 40.5666 161.376 40.5666 161.367C40.6933 159.07 40.9436 156.794 41.1246 154.503C41.1789 154.454 41.2332 154.406 41.2815 154.363C41.5137 154.154 41.194 153.8 40.9557 154.003C39.8397 154.96 37.0858 157.239 35.5415 156.228C35.8883 155.789 35.9487 155.193 35.7194 154.696C37.6378 152.245 39.903 150.374 42.7474 149.082C43.4321 149.345 44.1832 149.496 44.9463 149.542C44.9825 149.554 45.0217 149.56 45.0669 149.551C45.0669 149.551 45.073 149.551 45.076 149.551C45.1544 149.554 45.2328 149.56 45.3143 149.563C45.3806 149.563 45.4289 149.521 45.453 149.466C45.628 149.421 45.7969 149.366 45.9658 149.306C45.9748 149.312 45.9839 149.318 45.9959 149.324C48.3094 150.199 48.5447 153.007 48.7106 155.141C48.8675 157.181 48.783 159.227 48.7046 161.27C48.7016 161.355 48.7317 161.419 48.777 161.461C48.774 161.518 48.7739 161.576 48.7709 161.63C47.3201 161.458 45.8361 161.467 44.3762 161.412H44.3792Z" fill="#3C3C3B"/>
<path d="M143.27 151.242C142.31 151.054 142.259 153.448 142.332 154.741C141.246 152.386 137.895 146.254 135.946 148.391C135.877 148.466 135.928 148.578 136.006 148.608C135.982 148.663 135.967 148.717 135.961 148.775C135.611 148.439 135.056 148.291 134.649 148.608C134.338 148.854 134.236 149.392 134.444 149.719C134.034 149.583 133.548 149.692 133.262 150.031C132.96 150.391 132.957 150.9 133.204 151.266C133.204 151.302 133.21 151.342 133.237 151.384C133.367 151.575 133.5 151.771 133.633 151.965C133.256 151.968 132.848 152.216 132.673 152.519C132.381 153.021 132.562 153.593 132.927 153.99C134.278 156.478 136.664 158.851 139.017 160.249C139.035 160.261 139.056 160.264 139.074 160.267C141.4 161.956 144.597 159.441 144.657 156.705C144.657 156.656 144.636 156.62 144.606 156.596C144.862 155.31 144.923 153.92 144.582 152.682C144.434 152.147 143.975 150.785 143.273 151.242H143.27ZM144.443 154.728C144.434 155.546 144.313 156.354 144.25 157.168C143.984 158.276 143.511 159.293 142.482 159.919C141.46 160.543 140.28 160.515 139.264 160.019C139.252 159.983 139.228 159.95 139.189 159.925C137.786 159.072 136.589 158.012 135.512 156.775C134.607 155.736 133.868 154.517 132.912 153.527C132.815 153.267 132.794 152.988 132.918 152.734C133.12 152.325 133.554 152.24 133.931 152.398C134.86 153.736 135.871 155.089 137.035 156.178C137.122 156.26 137.261 156.145 137.198 156.045C136.136 154.35 134.785 152.776 133.593 151.169C133.542 151.099 133.467 151.078 133.397 151.084C133.304 150.809 133.319 150.491 133.503 150.258C133.783 149.904 134.275 149.943 134.619 150.158C134.634 150.167 134.649 150.17 134.664 150.173C135.78 151.889 136.966 153.642 138.404 155.095C138.48 155.17 138.609 155.064 138.549 154.974C137.4 153.191 136.073 151.523 134.89 149.762C134.86 149.716 134.821 149.695 134.779 149.683C134.607 149.42 134.628 149.011 134.93 148.851C135.346 148.63 135.765 148.99 135.958 149.332C135.994 149.392 136.055 149.411 136.115 149.401C136.178 149.532 136.257 149.662 136.335 149.789C137.3 151.348 138.588 152.782 139.695 154.247C139.81 154.399 140.063 154.241 139.949 154.09C139.439 153.418 135.771 149.338 136.42 148.439C138.504 147.691 141.686 154.014 142.401 155.425C142.401 155.44 142.407 155.458 142.407 155.47C142.437 155.636 142.7 155.588 142.697 155.425C142.675 154.777 142.386 152.162 143.119 151.569C143.164 151.623 143.242 151.65 143.312 151.602C144.156 151.03 144.452 154.405 144.449 154.731L144.443 154.728Z" fill="#3C3C3B"/>
<path d="M12.5835 67.0033C11.6183 67.1062 10.6652 67.3968 9.76933 67.7781C9.64867 66.6492 9.14194 65.5929 8.0621 65.3992C8.26721 65.1116 8.38786 64.7575 8.55376 64.4457C8.76188 64.0553 9.04541 63.7042 9.23846 63.3107C9.338 63.1079 9.09066 62.89 8.91571 63.0625C8.59599 63.3803 8.3758 63.8253 8.17371 64.2248C7.99273 64.585 7.76349 64.9996 7.76651 65.4113C7.76651 65.4476 7.7846 65.4748 7.81175 65.499C7.80572 65.5081 7.79969 65.5142 7.79365 65.5232C6.87972 65.2176 5.90545 65.1933 5.04279 65.4657C4.93722 65.1782 4.81054 64.8967 4.68989 64.6152C4.56924 64.3338 4.48478 64.016 4.28269 63.7829C4.14092 63.6195 3.9328 63.8011 3.95693 63.9736C3.99916 64.252 4.18315 64.5154 4.30682 64.7696C4.44255 65.042 4.57225 65.3205 4.72307 65.5868C3.92978 65.9197 3.26318 66.5281 2.87408 67.4391C2.83185 67.536 2.79566 67.6359 2.76549 67.7388C1.99031 67.3847 1.09749 67.0003 0.277054 66.8459C0.0538482 66.8035 -0.124114 67.1274 0.111157 67.2424C0.880311 67.6177 1.83949 67.8568 2.68707 68.0384C2.51816 68.8133 2.63278 69.6214 2.96759 70.3266C2.96155 70.3266 2.9525 70.3266 2.94647 70.3327C2.21955 70.6777 1.50167 71.1257 0.901426 71.6674C0.774742 71.7825 0.940638 72.0004 1.0824 71.9035C1.75504 71.4586 2.42164 71.0349 3.13951 70.6686C3.14253 70.6686 3.14555 70.6656 3.14856 70.6626C3.50147 71.2377 4.01122 71.7189 4.64163 72.0155C4.77435 72.0761 4.90706 72.1275 5.03978 72.1699C4.87388 72.4544 4.72005 72.748 4.56019 73.0385C4.37921 73.3715 4.16204 73.6984 4.03837 74.0555C3.96296 74.2704 4.27062 74.3703 4.38524 74.2008C4.6175 73.8648 4.76228 73.4471 4.93722 73.0779C5.06692 72.8025 5.19964 72.527 5.31728 72.2455C6.14676 72.4393 6.99434 72.3152 7.72729 71.9429C7.82985 72.1457 7.92939 72.3485 8.01987 72.5573C8.15862 72.8842 8.2461 73.2262 8.38183 73.5531C8.47835 73.7892 8.83126 73.7074 8.77093 73.4441C8.64726 72.8781 8.35468 72.2758 8.02892 71.7673C8.59599 71.4102 9.06954 70.8987 9.38626 70.2691C9.66979 70.4507 9.96539 70.6142 10.264 70.7685C10.5656 70.9229 10.8793 71.1166 11.2081 71.2044C11.4253 71.2619 11.555 70.9592 11.3589 70.8412C11.0573 70.6626 10.7104 70.5597 10.3937 70.4053C10.1011 70.2631 9.81457 70.1057 9.525 69.9513C9.709 69.4549 9.80552 68.8072 9.78441 68.1565C10.7195 67.8205 11.6485 67.5996 12.6258 67.3998C12.8459 67.3544 12.8007 66.9761 12.5715 67.0003L12.5835 67.0033ZM8.44517 70.7897C7.28993 72.0882 5.20266 72.1971 3.97503 70.932C2.80169 69.7213 2.85297 67.7539 4.05647 66.5947C5.14233 65.5444 6.55396 65.6927 7.92034 65.8501C7.92034 65.8501 7.92335 65.8501 7.92637 65.8532C9.89299 66.4615 9.49484 69.6093 8.44517 70.7897Z" fill="#3C3C3B"/>
<path d="M75.1719 157.373C74.0046 157.325 72.8403 157.27 71.673 157.231C71.7212 156.223 71.673 155.224 71.5161 154.222C71.492 154.062 71.2628 154.02 71.1602 154.129C70.3217 155.043 69.5947 156.057 69.0578 157.176C69.0488 157.195 69.0488 157.21 69.0458 157.225C68.1228 156.971 67.1636 156.865 66.2105 156.822C66.0054 156.813 65.942 157.061 66.0566 157.198C66.3281 157.521 66.6146 157.827 66.9374 158.1C67.2089 158.333 67.6915 158.551 67.785 158.871C67.8996 159.259 67.4743 159.919 67.3235 160.291C67.1093 160.824 66.8922 161.356 66.678 161.889C66.5996 162.083 66.8529 162.231 67.0098 162.143L69.3444 160.827C69.3444 160.827 69.3534 160.818 69.3625 160.811C69.9989 161.632 70.7379 162.346 71.5282 163.018C71.6398 163.115 71.863 163.1 71.8932 162.921C71.9686 162.47 72.0259 162.028 71.9987 161.568C71.9625 160.89 71.6941 160.5 72.0772 159.867C72.6744 158.877 74.276 158.345 75.2865 157.794C75.4946 157.682 75.389 157.376 75.1719 157.367V157.373ZM71.5734 159.398C71.3774 159.643 71.3201 159.804 71.299 160.115C71.2839 160.327 71.3894 160.575 71.4256 160.778C71.5312 161.365 71.5674 161.871 71.5131 162.437C70.7892 161.813 70.1075 161.15 69.4077 160.5C69.3987 160.491 69.3896 160.488 69.3776 160.482C69.3142 160.415 69.2177 160.385 69.1121 160.442C68.521 160.775 67.9298 161.108 67.3416 161.441C67.5527 160.923 67.7608 160.403 67.972 159.885C68.1077 159.552 68.4214 159.089 68.3128 158.708C68.2555 158.508 68.1107 158.442 67.966 158.314C67.5557 157.951 67.1395 157.652 66.7504 157.291C67.5135 157.334 68.2676 157.422 69.0337 157.509C69.1031 157.518 69.1453 157.473 69.1604 157.416C69.2237 157.434 69.2931 157.422 69.3384 157.343C69.8692 156.423 70.4604 155.572 71.1542 154.776C71.2567 155.693 71.2778 156.61 71.2145 157.534C71.1994 157.755 71.4558 157.803 71.5855 157.685C71.5885 157.685 71.5915 157.685 71.5976 157.685C72.5085 157.727 73.4224 157.761 74.3364 157.797C73.908 158.03 73.4797 158.263 73.0514 158.499C72.605 158.744 71.9082 158.98 71.5704 159.398H71.5734Z" fill="#3C3C3B"/>
<path d="M115.076 153.457C115.097 153.357 115.049 153.245 114.935 153.209C114.03 151.366 113.493 149.435 113.321 147.386C113.339 147.386 113.357 147.386 113.375 147.386C113.619 147.386 113.619 147.007 113.375 147.004C112.322 146.992 111.267 146.998 110.214 147.05C109.81 146.375 109.068 145.921 108.238 146.012C107.572 146.084 107.008 146.517 106.709 147.083C105.666 147.001 104.568 147.038 103.524 147.107C103.325 147.119 103.292 147.355 103.421 147.449C103.334 147.446 103.243 147.492 103.216 147.582C102.547 149.858 101.747 152.083 101.005 154.335C100.978 154.42 101.06 154.486 101.135 154.483C101.274 155.328 102.146 155.969 102.969 156.054C104.01 156.157 104.948 155.467 105.282 154.501C105.298 154.456 105.295 154.417 105.282 154.386C105.301 154.359 105.313 154.329 105.319 154.296C105.427 154.296 105.548 154.199 105.5 154.075C104.685 151.947 104.007 149.825 103.581 147.582C103.572 147.54 103.551 147.51 103.524 147.486C104.51 147.552 105.545 147.585 106.537 147.519C106.471 147.782 106.456 148.061 106.51 148.336C106.531 148.439 106.652 148.424 106.694 148.351C107.056 148.351 107.418 148.345 107.78 148.336C107.976 151.287 108.082 154.217 107.895 157.171C106.613 156.986 105.325 157.592 104.474 158.545C104.384 158.645 104.42 158.769 104.498 158.836C104.498 158.899 104.54 158.963 104.628 158.963C107.14 158.996 109.656 158.926 112.169 158.884C112.304 158.884 112.365 158.766 112.353 158.66C112.38 158.615 112.389 158.557 112.362 158.5C111.876 157.383 110.256 157.241 109.201 157.135C109.201 154.193 109.122 151.236 108.947 148.3C109.348 148.285 109.753 148.269 110.154 148.257C110.268 148.254 110.323 148.161 110.317 148.07C110.416 148.073 110.522 148.012 110.507 147.9C110.483 147.71 110.428 147.528 110.359 147.352C111.206 147.389 112.057 147.395 112.905 147.392C112.108 149.247 111.517 151.26 111.031 153.215C111.025 153.242 111.031 153.264 111.038 153.285C110.989 153.306 110.956 153.351 110.98 153.415C111.698 155.282 114.361 155.494 115.321 153.699C115.417 153.518 115.212 153.379 115.07 153.466L115.076 153.457ZM102.884 155.655C102.118 155.524 101.726 154.998 101.367 154.386C101.379 154.392 101.394 154.396 101.41 154.396C102.571 154.459 103.738 154.459 104.902 154.456C104.556 155.255 103.777 155.806 102.884 155.652V155.655ZM105.114 154.06C103.88 154.057 102.643 154.05 101.413 154.12C101.385 154.12 101.361 154.132 101.343 154.144C102.139 152.286 102.779 150.358 103.364 148.424C103.768 150.355 104.326 152.253 105.117 154.063L105.114 154.06ZM109.189 157.719C109.234 157.667 109.231 157.61 109.207 157.561C109.207 157.501 109.207 157.443 109.207 157.383C110.09 157.552 111.463 157.67 111.979 158.494C109.62 158.542 107.258 158.569 104.902 158.684C105.738 157.87 106.727 157.519 107.882 157.383C107.882 157.416 107.879 157.452 107.876 157.486C107.873 157.534 107.889 157.567 107.91 157.595C107.828 157.534 107.747 157.661 107.807 157.728C108.157 158.124 108.842 158.121 109.192 157.716L109.189 157.719ZM108.003 148.333C108.253 148.327 108.501 148.315 108.751 148.306C108.697 151.393 108.748 154.504 108.893 157.589C108.893 157.598 108.896 157.604 108.899 157.61C108.631 157.804 108.29 157.819 107.997 157.652C108.097 157.676 108.22 157.622 108.229 157.489C108.447 154.438 108.447 151.363 108.003 148.333ZM110.157 147.909C109.017 147.955 107.876 147.988 106.739 148.076C106.866 147.259 107.409 146.475 108.287 146.39C108.911 146.332 109.451 146.623 109.795 147.083C109.692 147.14 109.713 147.316 109.855 147.325C109.888 147.325 109.918 147.325 109.952 147.328C110.048 147.507 110.118 147.7 110.157 147.906V147.909ZM111.243 153.23C111.906 151.52 112.356 149.728 113.028 148.024C113.245 149.822 113.743 151.541 114.521 153.182C113.435 153.127 112.344 153.112 111.261 153.224C111.252 153.224 111.246 153.23 111.24 153.23H111.243ZM111.33 153.503C112.467 153.542 113.601 153.542 114.739 153.603C114.793 153.657 114.865 153.657 114.929 153.624C113.906 154.874 112.259 154.816 111.333 153.503H111.33Z" fill="#3C3C3B"/>
<path d="M217.737 60.3804C217.71 60.3622 217.677 60.3501 217.631 60.3531C217.025 60.4016 216.428 60.3592 215.825 60.3077C215.746 60.3017 215.701 60.3562 215.695 60.4197C215.677 60.4409 215.662 60.4682 215.65 60.5045C215.113 62.5112 214.561 64.5148 214.012 66.5185C213.731 65.8769 213.415 65.2625 213.041 64.6632C213.071 64.5784 213.023 64.4574 212.905 64.4452C212.41 64.3968 211.897 64.3605 211.4 64.3726C211.364 64.3726 211.342 64.3938 211.324 64.418C211.27 64.4241 211.219 64.4755 211.237 64.536C211.692 66.1008 212.311 67.6142 212.944 69.1124C212.98 69.1941 213.083 69.2123 213.158 69.2002C213.858 69.0882 214.525 69.0912 215.227 69.182C215.333 69.1972 215.399 69.1094 215.411 69.0156C215.448 69.0125 215.484 68.9883 215.499 68.9429C216.422 66.1977 217.224 63.3829 218.002 60.5923C218.054 60.4137 217.867 60.3138 217.734 60.3713L217.737 60.3804ZM215.312 68.8249C215.312 68.8249 215.291 68.8128 215.279 68.8128C214.805 68.7462 214.341 68.7099 213.861 68.7401C213.167 68.7855 213.137 68.6312 212.857 67.9774C212.38 66.8545 211.94 65.7165 211.457 64.5936C211.91 64.6722 212.38 64.7177 212.839 64.7479C213.201 65.5379 213.55 66.3339 213.867 67.142C213.93 67.3085 214.175 67.3357 214.229 67.142C214.844 64.9779 215.442 62.8078 216.045 60.6407C216.537 60.7527 217.04 60.7799 217.544 60.7466C216.675 63.3859 215.882 66.1099 215.303 68.8249H215.312Z" fill="#3C3C3B"/>
<path d="M217.794 65.0052C217.731 64.6632 217.209 64.8084 217.273 65.1505C217.607 66.9302 217.752 68.9853 216.024 70.1233C214.51 71.1221 212.501 70.7499 211.14 69.6814C209.684 68.5373 208.966 66.4186 210.067 64.76C210.926 63.4646 212.552 63.0227 214.015 62.9682C214.232 62.9591 214.223 62.6595 214.015 62.6353C212.226 62.4476 210.263 63.1316 209.406 64.8296C208.471 66.682 209.24 68.8945 210.803 70.1203C212.398 71.3703 214.772 71.6942 216.47 70.4623C218.268 69.1578 218.165 66.9756 217.794 65.0052Z" fill="#3C3C3B"/>
<path d="M145.916 5.27023C140.384 1.02377 129.302 2.69148 128.077 10.6366C127.426 14.8649 130.988 18.0823 135.03 18.1246C135.618 19.5381 137.09 20.3644 138.574 20.4552C138.767 20.4673 138.843 20.2524 138.776 20.1041C138.465 19.4261 138.462 18.7935 138.538 18.0792C142.079 18.058 146.088 17.4164 148.115 14.1445C150.003 11.0966 148.585 7.31931 145.919 5.27326L145.916 5.27023ZM138.227 17.5374C137.932 17.5374 137.889 17.9249 138.097 18.0429C137.92 18.6725 137.995 19.3323 138.212 19.9406C137 19.756 136.065 19.0205 135.35 18.0187C135.365 17.9551 135.341 17.8855 135.262 17.8674C133.157 17.3891 130.943 16.8262 129.592 14.9859C128.165 13.0428 128.295 10.4217 129.438 8.37562C131.489 4.70726 135.962 3.12127 139.971 3.54501C143.955 3.96875 148.6 6.68672 148.455 11.2449C148.29 16.4236 142.269 17.5496 138.233 17.5344L138.227 17.5374Z" fill="#3C3C3B"/>
<path d="M183.701 6.04019C181.333 7.63526 178.836 8.93371 176.175 9.95976C176.013 10.0233 175.919 10.2957 176.121 10.3865C176.673 10.6377 177.219 10.8315 177.795 10.9858C174.444 13.7946 171.132 17.8716 172.206 22.5085C172.191 22.5266 172.176 22.5478 172.158 22.566C172.052 22.6931 172.185 22.8626 172.312 22.8142C172.369 22.8384 172.447 22.8142 172.441 22.7385C172.441 22.7264 172.441 22.7173 172.441 22.7052C173.256 21.8971 173.995 21.0284 174.679 20.1113C175.433 21.5914 176.344 22.9746 177.964 23.589C178.136 23.6526 178.245 23.5133 178.245 23.368C178.344 23.3015 178.401 23.1774 178.314 23.0442C177.334 21.5611 178.076 18.8098 178.534 17.2329C179.014 15.5834 179.762 14.064 180.715 12.6444C181.406 13.2165 182.099 13.7885 182.793 14.3606C182.959 14.4968 183.197 14.409 183.212 14.1881C183.366 11.5458 183.65 8.9216 184.054 6.30654C184.081 6.12191 183.897 5.91004 183.707 6.04019H183.701ZM182.754 13.6977C182.115 13.165 181.475 12.6293 180.836 12.0966C180.703 11.9877 180.54 12.0058 180.44 12.1481C179.18 13.958 178.26 15.9466 177.78 18.1046C177.46 19.5362 176.999 21.5339 177.669 22.9443C176.338 22.2482 175.578 20.8862 174.921 19.5635C174.836 19.394 174.619 19.4364 174.526 19.5635C173.856 20.4957 173.141 21.3916 172.408 22.2724C172.097 17.5326 174.903 13.9126 178.447 11.0342C178.579 10.9283 178.501 10.6922 178.347 10.6559C177.807 10.5318 177.34 10.3896 176.848 10.1928C179.186 9.26362 181.412 8.1044 183.52 6.72725C183.176 9.04267 182.923 11.3642 182.76 13.6977H182.754Z" fill="#3C3C3B"/>
<path d="M11.2963 41.8648C10.2014 40.0488 7.2635 39.6856 5.65581 41.0355C1.8402 44.2347 6.46719 50.4758 10.316 47.5853C10.3793 47.6004 10.4487 47.5944 10.512 47.5399C12.0986 46.1658 12.3761 43.6536 11.2963 41.8648ZM10.2044 47.2312C10.1682 47.2645 10.1501 47.3008 10.1441 47.3371C8.54844 48.1755 6.64214 48.0181 5.45372 46.4896C4.24419 44.9339 4.45533 42.2644 6.23192 41.1536C7.96026 40.073 10.5633 40.8569 11.239 42.7668C11.794 44.3346 11.4622 46.1143 10.2074 47.2312H10.2044Z" fill="#3C3C3B"/>
<path d="M17.7873 54.5982C16.7256 52.7942 15.2778 50.9328 13.9144 49.3408C13.9054 49.2167 13.7455 49.1108 13.6068 49.1713C13.4348 49.247 13.2689 49.3438 13.1061 49.4497C12.8647 48.9322 12.4304 48.463 12.0142 48.0756C16.1555 44.6282 10.4487 36.3139 5.15812 39.8006C2.53697 41.5289 2.40727 45.1972 4.20799 47.6095C5.75233 49.6767 8.70227 50.0884 10.883 48.8928C10.88 48.914 10.883 48.9352 10.8921 48.9594C11.0761 49.2954 11.2902 49.6223 11.4984 49.9431C11.5768 50.0672 11.6552 50.2397 11.7638 50.3608C11.6582 50.4364 11.5496 50.5121 11.4471 50.5908C11.3687 50.6544 11.3777 50.7421 11.429 50.8027C11.4199 50.8329 11.423 50.8632 11.438 50.8935C11.8965 51.7288 16.0922 59.4923 17.6607 56.5474C18.1915 56.0268 18.2157 55.3306 17.7843 54.5951L17.7873 54.5982ZM10.883 48.3692C10.8107 48.4116 10.7865 48.4751 10.7956 48.5357C8.76259 49.3408 6.46719 49.4951 4.84141 47.6791C2.86574 45.4757 2.914 41.7074 5.55929 40.0942C10.6387 37.0009 16.056 45.4575 10.883 48.3662V48.3692ZM11.5557 49.4618C11.3928 49.247 11.236 49.029 11.064 48.8262C11.055 48.8141 11.0429 48.8081 11.0308 48.802C11.2812 48.6537 11.5255 48.4873 11.7517 48.2935C11.7578 48.2875 11.7578 48.2814 11.7608 48.2754C11.7849 48.2572 11.809 48.2391 11.8332 48.2209C12.2313 48.6658 12.4907 49.1562 12.7893 49.6646C12.6777 49.7433 12.5661 49.822 12.4545 49.8947C12.3369 49.9734 12.2162 50.0521 12.0986 50.1308C12.0745 50.1186 12.0504 50.1156 12.0232 50.1156C11.9448 50.0278 11.8754 49.8947 11.8181 49.822C11.7306 49.704 11.6401 49.5859 11.5527 49.4679L11.5557 49.4618ZM17.531 56.1902C17.4857 56.1963 17.4374 56.2205 17.4013 56.2719C16.2309 57.9185 14.3337 54.5043 13.7727 53.6932C13.1061 52.7246 12.4545 51.744 11.7035 50.839C12.0865 50.6423 12.4485 50.4062 12.8135 50.1762C13.088 50.0036 13.3836 49.8432 13.646 49.6465C14.3156 50.7179 15.1149 51.7167 15.8599 52.7337C16.4873 53.5903 18.0166 55.0734 17.5279 56.1902H17.531Z" fill="#3C3C3B"/>
<path d="M16.9059 114.265C16.6133 113.663 16.1549 113.067 15.7628 112.525C15.7205 112.468 15.6662 112.437 15.6089 112.425C15.5727 112.244 15.2771 112.138 15.1263 112.337C14.0947 113.718 11.926 113.442 11.4253 111.729C10.997 110.267 12.2156 109.232 13.41 108.724C13.5156 108.678 13.5126 108.569 13.4583 108.494C13.4583 108.463 13.4583 108.43 13.4432 108.394C13.217 107.758 12.9998 107.119 12.7676 106.487C12.668 106.217 12.5806 105.833 12.2458 105.766C11.9079 105.697 11.5098 106.066 11.2504 106.22C10.7859 106.496 10.3274 106.777 9.86892 107.065C10.0318 104.97 7.47398 103.409 5.56165 104.217C3.37484 105.14 3.26927 108.466 5.6069 109.126C5.14541 109.284 4.70201 109.495 4.2556 109.686C3.93587 109.822 3.18783 109.971 3.03098 110.316C2.91335 110.57 3.16069 110.882 3.27229 111.084C3.59503 111.675 3.91777 112.28 4.30386 112.828C4.2375 112.955 4.40038 113.091 4.52707 112.988C5.69135 112.023 7.55844 111.778 8.74987 112.861C9.50395 113.548 9.80558 114.686 9.05754 115.497C8.49047 116.112 7.60972 116.487 6.83755 116.726C6.72293 116.763 6.66863 116.85 6.65958 116.944C6.5691 116.944 6.48162 117.023 6.51782 117.126C6.73801 117.743 7.01551 118.339 7.3111 118.927C7.44684 119.199 7.6248 119.786 7.94452 119.895C8.23107 119.992 8.46634 119.723 8.6624 119.565C9.18724 119.148 9.75128 118.821 10.3545 118.539C10.2037 120.603 12.5564 122.053 14.4115 121.079C16.2725 120.101 16.3208 117.307 14.4326 116.363C15.0358 116.157 15.6331 115.93 16.2242 115.691C16.5379 115.564 16.8999 115.458 17.0356 115.11C17.1472 114.825 17.0356 114.523 16.9059 114.262V114.265ZM16.3057 115.149C16.0855 115.361 15.5395 115.485 15.256 115.615C14.8217 115.815 14.3873 116.012 13.965 116.236C13.8565 116.293 13.8896 116.442 13.9801 116.487C13.9681 116.581 13.9952 116.681 14.0857 116.735C15.5788 117.677 15.8412 119.832 14.0585 120.673C12.288 121.511 10.8914 120.007 10.6984 118.339C10.7919 118.176 10.6351 117.891 10.4239 117.976C10.0831 118.112 9.75128 118.267 9.43156 118.448C9.0877 118.645 8.77099 118.975 8.4211 119.141C7.89023 119.393 7.7183 118.745 7.49811 118.339C7.29904 117.97 7.106 117.598 6.9039 117.232C6.92502 117.232 6.94915 117.232 6.97328 117.226C8.85243 116.641 11.0272 115.049 9.47982 112.949C8.30346 111.354 5.89646 111.342 4.50897 112.619C4.3853 112.313 4.24353 112.017 4.10177 111.72C3.97207 111.451 3.45025 110.736 3.67949 110.44C3.85745 110.21 4.5512 110.07 4.82266 109.955C5.22081 109.786 5.62801 109.632 6.00505 109.417C6.13173 109.344 6.12268 109.187 6.04426 109.099C6.09252 109.014 6.07141 108.896 5.95076 108.857C3.69457 108.094 3.99017 104.916 6.35192 104.541C8.26124 104.238 9.4587 105.848 9.32599 107.601C9.30789 107.858 9.68492 107.888 9.76033 107.658C9.78145 107.595 9.79653 107.534 9.81161 107.474C10.1253 107.313 10.439 107.15 10.7497 106.983C11.0845 106.805 11.4736 106.499 11.8325 106.393C12.1311 106.305 12.1342 106.254 12.3151 106.614C12.3996 106.78 12.4418 106.983 12.5052 107.159C12.662 107.607 12.8158 108.055 12.9727 108.503C11.3047 109.044 10.2188 110.839 11.2051 112.51C12.1402 114.096 14.2244 114.081 15.3797 112.822C15.7235 113.348 16.8908 114.583 16.3087 115.149H16.3057Z" fill="#3C3C3B"/>
<path d="M217.907 106.889C217.153 105.252 214.721 105.355 213.817 106.738C212.794 105.112 210.209 104.707 209.446 106.817C208.496 109.435 211.461 112.119 213.491 113.173C213.491 113.173 213.494 113.173 213.497 113.173C213.47 113.363 213.711 113.545 213.892 113.378C215.412 111.98 219.08 109.432 217.91 106.889H217.907ZM217.53 108.524C217.388 109.08 216.987 109.589 216.622 110.007C215.714 111.045 214.643 111.947 213.675 112.927C213.666 112.918 213.66 112.906 213.648 112.9C212.414 112.065 211.262 111.048 210.49 109.755C210.037 108.999 209.603 108.054 209.889 107.149C210.592 104.949 212.761 105.89 213.455 107.116C213.578 107.334 213.859 107.234 213.916 107.05C214.504 106.511 215.466 105.854 216.296 106.199C217.213 106.58 217.774 107.579 217.53 108.527V108.524Z" fill="#3C3C3B"/>
<path d="M222.732 127.489C220.436 126.003 217.444 126.484 215.96 128.839C215.52 128.458 215.043 128.173 214.542 128.058C215.034 127.795 215.438 127.625 215.67 126.829C215.939 125.906 215.912 124.853 215.453 123.993C215.242 123.597 214.965 123.282 214.639 123.031C214.687 123.004 214.723 122.961 214.729 122.895C214.787 122.247 214.63 121.605 214.256 121.069C214.165 120.939 213.984 121.006 213.975 121.154C213.945 121.663 213.737 122.059 213.444 122.453C212.527 122.214 211.493 122.313 210.606 122.704C210.525 122.74 210.449 122.783 210.374 122.825C209.813 122.655 209.339 122.371 208.941 121.935C208.86 121.847 208.673 121.896 208.661 122.023C208.579 122.722 208.802 123.427 209.339 123.884C208.757 124.889 208.664 126.239 209.089 127.271C209.653 128.636 210.968 129.117 212.262 128.963C212.06 129.19 211.909 129.475 211.797 129.789C209.381 129.063 206.836 129.844 205.056 131.608C204.908 131.754 205.077 132.05 205.279 131.966C206.06 131.642 206.977 131.978 207.376 132.725C207.457 132.877 207.647 132.825 207.729 132.713C208.814 132.259 209.523 132.383 209.849 133.082C209.879 133.137 209.948 133.173 210.009 133.167C210.657 133.131 210.666 132.577 211.553 132.532C211.595 133.134 211.68 133.688 211.752 134.105C211.858 134.693 212.021 136.315 212.639 136.609C213.303 136.926 214.666 136.07 215.266 135.852C215.963 135.601 216.66 135.346 217.356 135.095C217.718 134.965 218.56 134.853 218.789 134.469C219.139 133.882 218.614 132.91 218.376 132.359C218.153 131.842 217.812 131.182 217.387 130.534C217.691 130.386 218.002 130.355 218.331 130.389C218.352 130.431 218.373 130.47 218.403 130.507C218.512 130.652 218.747 130.555 218.699 130.371C218.551 129.829 218.831 129.242 219.45 129.223C219.932 129.208 220.303 129.52 220.596 129.865C220.65 129.929 220.729 129.892 220.759 129.829C220.87 129.847 220.997 129.783 221 129.638C221.015 128.676 221.673 127.937 222.638 127.861C222.843 127.846 222.891 127.595 222.725 127.489H222.732ZM214.192 121.596C214.367 121.993 214.44 122.413 214.401 122.861C214.171 122.716 213.927 122.598 213.668 122.513C213.918 122.262 214.093 121.938 214.192 121.596ZM208.977 122.438C209.285 122.71 209.638 122.922 210.024 123.064C209.807 123.24 209.62 123.452 209.463 123.688C209.17 123.318 208.989 122.901 208.977 122.438ZM209.445 126.717C208.965 124.895 209.982 123.164 211.843 122.91C213.541 122.677 215.112 123.43 215.32 125.298C215.444 126.412 215.046 127.277 214.09 127.822C213.939 127.91 213.843 127.961 213.752 128.028C213.64 128.049 213.571 128.125 213.541 128.213C213.529 128.225 213.52 128.234 213.508 128.246C211.921 128.706 209.958 128.673 209.445 126.717ZM207.023 131.684C206.691 131.472 206.332 131.381 205.97 131.384C206.974 130.591 208.121 130.131 209.336 129.974C208.528 130.461 207.931 131.254 207.626 132.153C207.418 132.132 207.243 131.826 207.023 131.684ZM209.994 132.55C209.731 132.404 209.605 131.99 209.261 131.838C208.992 131.72 208.682 131.693 208.398 131.751C208.274 131.775 207.982 131.987 207.795 132.093C208.22 131.115 208.974 130.407 209.93 129.92C210.078 129.914 210.229 129.91 210.38 129.91C209.831 130.743 210.636 131.796 210.154 132.613C210.111 132.604 210.06 132.586 209.994 132.55ZM210.675 132.356C210.513 132.441 210.422 132.516 210.35 132.568C210.754 131.781 210.129 130.773 210.63 129.998C210.645 129.974 210.648 129.947 210.645 129.923C211.001 129.938 211.363 129.974 211.725 130.038C211.544 130.688 211.508 131.451 211.538 132.174C211.233 132.174 210.965 132.208 210.675 132.356ZM217.209 134.59C216.497 134.962 215.61 135.171 214.856 135.443C214.506 135.57 214.159 135.695 213.809 135.822C213.342 135.991 213.212 136.161 212.862 135.87C212.407 135.492 212.316 134.278 212.232 133.742C212.033 132.45 211.752 129.735 212.904 128.836C213.131 128.772 213.351 128.691 213.562 128.591C213.634 128.624 213.722 128.621 213.797 128.561C214.744 128.436 215.698 129.402 216.274 130.044C216.829 130.664 217.305 131.372 217.679 132.12C218.237 133.231 218.403 133.963 217.209 134.593V134.59ZM218.261 130.107C217.908 130.016 217.528 130.083 217.206 130.253C216.88 129.786 216.512 129.341 216.111 128.969C216.271 128.772 216.443 128.594 216.621 128.424C216.94 128.663 217.275 128.869 217.568 129.151C217.83 129.402 218.062 129.68 218.264 129.977C218.264 130.022 218.258 130.065 218.264 130.11L218.261 130.107ZM220.62 129.508C220.252 129.042 219.622 128.751 219.043 128.951C218.717 129.063 218.433 129.369 218.316 129.714C217.933 129.124 217.414 128.558 216.801 128.255C217.022 128.061 217.254 127.895 217.492 127.743C217.51 127.752 217.534 127.759 217.559 127.762C218.819 127.822 219.809 128.415 220.644 129.296C220.635 129.366 220.623 129.435 220.62 129.511V129.508ZM220.702 129.002C220.059 128.152 219.021 127.628 217.972 127.474C219.248 126.86 220.711 126.844 222.086 127.568C221.389 127.783 220.886 128.303 220.699 129.002H220.702Z" fill="#3C3C3B"/>
<path d="M219.635 92.4004C219.403 92.2854 219.155 92.3065 218.92 92.3792C218.984 92.2702 219.047 92.1643 219.089 92.0462C219.174 91.8071 219.149 91.5529 218.968 91.3622C218.622 91.0051 218.202 91.1231 217.87 91.3804C217.922 91.226 217.943 91.0626 217.898 90.8931C217.81 90.5541 217.509 90.3331 217.162 90.4118C216.767 90.4996 216.459 90.9112 216.236 91.2169C215.994 91.5499 215.807 91.9191 215.678 92.3065C215.195 91.9797 214.667 91.7526 214.103 91.6709C214.815 91.0928 215.267 90.2151 215.207 89.2344C215.105 87.5879 213.455 86.2804 211.847 86.4801C210.26 86.6769 209.018 88.281 209.217 89.867C209.401 91.3471 210.749 92.7151 212.221 92.3005C212.23 92.3096 212.242 92.3126 212.251 92.3217C211.769 92.6879 211.434 93.1722 211.204 93.72C210.595 93.1661 209.428 92.8635 208.68 93.2055C208.004 93.5142 208.439 93.9591 208.945 94.2588C208.813 94.283 208.683 94.3163 208.553 94.3768C208.3 94.4979 207.926 94.743 207.881 95.0487C207.829 95.3786 208.203 95.6117 208.46 95.7328C208.586 95.7933 208.716 95.8326 208.852 95.8629C208.632 95.9295 208.433 96.0415 208.282 96.2443C208.077 96.5258 208.034 96.892 208.242 97.1825C208.873 98.0663 210.107 97.2915 210.888 97.1583C211.008 98.1329 211.253 99.0712 211.524 99.8128C211.569 99.9368 211.705 100.028 211.838 99.9822C213.642 99.3648 215.445 98.7504 217.249 98.1329C218.127 97.8333 218.688 97.8726 218.522 96.9192C218.404 96.2564 218.154 95.536 217.804 94.8459C218.326 94.6825 218.815 94.4222 219.243 94.0802C219.538 93.8411 219.958 93.5172 220.03 93.1116C220.084 92.8059 219.913 92.5335 219.644 92.3973L219.635 92.4004ZM209.769 89.0316C210.019 87.8845 211.099 86.9432 212.287 86.9795C213.467 87.0128 214.595 88.0692 214.688 89.2496C214.791 90.5178 213.792 91.6043 212.613 91.8646C212.577 91.8404 212.532 91.8313 212.483 91.8495C210.846 92.4276 209.434 90.5632 209.769 89.0316ZM210.846 96.8375C210.269 96.8375 209.781 97.234 209.208 97.2491C208.855 97.2582 208.36 97.0736 208.457 96.6256C208.55 96.1898 209.156 96.0203 209.509 95.9053C209.53 95.8992 209.543 95.8841 209.549 95.8659C209.696 95.7933 209.636 95.5209 209.455 95.533C209.196 95.5512 208.098 95.4604 208.276 95.0185C208.423 94.6492 208.966 94.4979 209.374 94.4767C209.476 94.5191 209.57 94.5523 209.639 94.5675C209.814 94.6068 209.917 94.3526 209.751 94.2678C209.555 94.168 209.256 94.0923 209.09 93.941C208.559 93.4537 209.328 93.4446 209.612 93.4567C210.17 93.4839 210.625 93.7018 211.108 93.9531C210.803 94.8248 210.752 95.8387 210.843 96.8345L210.846 96.8375ZM216.601 97.8121C215.862 98.0663 215.126 98.3176 214.387 98.5718C213.919 98.7322 212.625 99.4374 212.173 99.3315C211.461 99.165 211.41 97.5397 211.361 97.0191C211.195 95.2939 211.461 93.5051 212.785 92.3035C213.008 92.2551 213.225 92.1855 213.43 92.0886C213.467 92.1128 213.509 92.128 213.56 92.128C215.59 92.1189 216.951 94.1528 217.632 95.8538C218.115 97.0585 217.747 97.4156 216.598 97.8091L216.601 97.8121ZM219.46 93.3961C219.382 93.5293 219.207 93.6443 219.092 93.7382C218.655 94.0983 218.16 94.3405 217.626 94.5221C217.174 93.723 216.583 92.9875 215.883 92.4579C216.049 92.0614 216.242 91.6891 216.516 91.3501C216.631 91.2078 216.863 90.8658 217.041 90.8295C217.222 90.9112 217.403 90.9899 217.584 91.0716C217.557 91.1776 217.533 91.2835 217.506 91.3925C217.451 91.5256 217.352 91.6558 217.273 91.7738C217.177 91.9252 217.412 92.0977 217.527 91.9675C217.56 91.9766 217.596 91.9675 217.62 91.9403C217.807 91.7345 218.036 91.4833 218.329 91.453C218.658 91.4197 218.881 91.674 218.742 91.9797C218.619 92.2551 218.326 92.5366 218.425 92.8634C218.474 93.0208 218.673 92.9906 218.721 92.8544C218.748 92.7817 218.769 92.7091 218.793 92.6395C219.047 92.5668 219.364 92.5063 219.49 92.6637C219.611 92.815 219.545 93.2448 219.46 93.3901V93.3961Z" fill="#3C3C3B"/>
<path d="M213.835 84.3191C213.216 84.0194 212.215 83.8257 211.6 84.2283C211.506 84.2888 211.512 84.4038 211.572 84.4734C211.192 85.4541 214.028 86.3772 214.577 85.6115C214.963 85.0697 214.257 84.5249 213.835 84.3191ZM213.02 85.333C212.734 85.2573 211.72 84.9577 211.82 84.5309C212.203 84.5158 212.556 84.428 212.951 84.4916C213.292 84.5461 214.004 84.7337 214.166 85.0909C214.42 85.6508 213.277 85.3996 213.02 85.33V85.333Z" fill="#3C3C3B"/>
<path d="M7.00414 147.197C7.24846 146.552 7.57724 144.376 8.12319 144.101C8.3102 144.007 9.00394 144.143 9.28446 144.076C9.66451 143.989 10.0325 143.819 10.3462 143.586C11.6432 142.63 11.6673 140.871 11.1485 139.47C9.79723 135.826 4.81733 136.361 4.06929 140.108C4.06929 140.118 4.06929 140.13 4.06929 140.139C4.00595 140.172 3.96976 140.254 4.0331 140.329C4.46443 140.853 4.84448 141.395 5.21548 141.964C5.31201 142.112 5.52314 142.055 5.55632 141.924C5.61363 141.924 5.66793 141.894 5.68904 141.834C5.86399 141.31 6.10227 140.823 6.52455 140.45C6.92874 140.093 7.66471 139.697 8.01158 140.375C8.63596 141.601 6.69649 142.209 5.95146 142.563C5.93035 142.572 5.91828 142.584 5.9032 142.596C5.83986 142.584 5.76746 142.608 5.74635 142.681C5.35725 144.019 5.06467 145.387 4.69065 146.731C4.65445 146.861 4.73891 146.985 4.87464 146.997C5.44774 147.049 6.00575 147.143 6.56075 147.285C6.58186 147.291 6.60298 147.288 6.62107 147.288C6.73268 147.382 6.93779 147.376 7.00414 147.197ZM5.14309 146.616C5.4779 145.39 5.79763 144.152 5.97559 142.896C6.01781 142.911 6.06608 142.914 6.11735 142.896C6.88047 142.572 7.77933 142.297 8.25289 141.558C8.5877 141.032 8.60278 140.305 8.12621 139.857C7.02828 138.822 5.67698 140.62 5.44171 141.649C5.125 141.125 4.72081 140.638 4.2744 140.223C4.28043 140.214 4.28948 140.202 4.2925 140.187C4.98625 137.854 7.84267 136.334 9.83041 138.274C11.7005 140.099 11.1636 144.533 7.85474 143.538C7.74012 143.504 7.58629 143.565 7.55914 143.689C7.31482 144.788 6.99811 145.847 6.61806 146.903C6.1264 146.767 5.6438 146.676 5.14309 146.619V146.616Z" fill="#3C3C3B"/>
<path d="M6.72965 148.296C6.70552 148.211 6.64218 148.166 6.57281 148.15C6.24705 147.261 3.38459 147.914 4.25328 149.537C4.56094 150.109 5.26977 150.433 5.88207 150.178C6.60297 149.882 6.93476 149.022 6.72664 148.293L6.72965 148.296ZM4.77208 149.528C3.73749 148.399 5.99971 147.802 6.34659 148.241C6.32547 148.278 6.31642 148.323 6.3315 148.38C6.58487 149.301 5.5714 150.402 4.77208 149.531V149.528Z" fill="#3C3C3B"/>
<path d="M19.7179 20.5773C19.2111 19.5603 17.5371 17.0663 15.9988 16.7516C17.1419 16.0373 17.7512 14.8508 17.0454 13.2951C16.234 11.5124 14.2373 11.3429 12.5723 12.0299C11.1275 12.6292 10.3583 14.3423 10.9887 15.8193C11.4804 16.9695 12.7502 17.5839 13.9175 17.3872C12.4788 18.4889 12.53 21.2462 12.8015 22.8171C12.9222 23.5041 13.0368 24.9237 13.7697 25.2203C14.0653 25.3413 14.5359 25.0296 14.7591 24.9388C15.6971 24.5544 16.6382 24.2063 17.6155 23.937C18.2429 23.7644 20.119 23.7705 20.4719 23.1349C20.8037 22.5416 19.9923 21.1312 19.7148 20.5773H19.7179ZM11.5528 15.8769C10.856 14.6995 11.408 13.1226 12.5964 12.5323C13.815 11.927 15.664 11.8634 16.4542 13.1528C17.6909 15.1716 16.0681 16.5427 14.2131 16.9574C14.2071 16.9574 14.2011 16.9634 14.195 16.9665C13.1906 17.1057 12.1138 16.8212 11.5558 15.8799L11.5528 15.8769ZM19.3891 23.0289C18.632 23.3135 17.7362 23.3891 16.958 23.6252C16.2431 23.8401 15.3261 24.4121 14.6052 24.4787C13.5888 24.5726 13.4741 23.7554 13.3203 22.9533C12.9433 20.9708 12.9855 18.5676 14.7138 17.3024C14.738 17.2964 14.7591 17.2873 14.7832 17.2812C14.8254 17.3963 14.9491 17.478 15.0909 17.3902C15.7213 16.9998 16.8313 17.8109 17.2294 18.159C17.4617 18.3618 17.6819 18.5736 17.89 18.8006C18.451 19.406 18.9246 20.087 19.2986 20.8255C19.5097 21.2402 19.7571 21.788 19.8596 22.2692C20.0044 22.9351 20.0285 22.7959 19.3891 23.035V23.0289Z" fill="#3C3C3B"/>
<path d="M9.24529 12.6928C7.57728 12.0965 5.91229 11.5335 4.27746 10.8616C4.69672 10.8162 5.11599 10.798 5.55033 10.8132C5.88514 10.8253 5.88816 10.3107 5.55637 10.2926C4.74197 10.2532 3.97885 10.3319 3.18858 10.5166C2.9895 10.562 2.94426 10.8132 3.07094 10.9524C3.55053 11.4791 4.06029 11.9542 4.62132 12.3961C4.87468 12.5959 5.22759 12.272 4.98327 12.0299C4.78721 11.8362 4.59417 11.6425 4.39811 11.4488C5.9515 12.0632 7.5441 12.602 9.17893 12.9319C9.33578 12.9621 9.39309 12.7472 9.24529 12.6928Z" fill="#3C3C3B"/>
<path d="M12.4878 6.0885C11.963 5.67082 11.411 5.3288 10.8107 5.02916C10.678 4.96257 10.4548 5.00797 10.4307 5.18655L10.1532 7.06008C10.1049 7.38999 10.5272 7.51105 10.6509 7.1993C10.7595 6.9269 10.865 6.65147 10.9706 6.37907C11.5377 7.64423 12.0776 8.92452 12.6296 10.1957C12.6989 10.3562 12.9674 10.2442 12.9161 10.0777C12.4576 8.65817 11.8996 7.278 11.3084 5.90993C11.604 6.09153 11.8906 6.28524 12.1771 6.49711C12.4094 6.6666 12.714 6.27616 12.4848 6.09456L12.4878 6.0885Z" fill="#3C3C3B"/>
<path d="M20.0376 5.34091C20.0346 5.28643 20.0135 5.238 19.9773 5.19865C19.9019 5.08969 19.7571 5.0564 19.6334 5.11996C19.0362 5.41355 18.5807 5.77373 18.1584 6.29432C17.9835 6.51224 18.2067 6.8815 18.4782 6.70898C18.641 6.60607 18.7949 6.49711 18.9487 6.38815C18.2369 7.80767 17.6336 9.28773 17.2415 10.8283C17.1902 11.0281 17.4768 11.1007 17.5461 10.9131C18.1735 9.25141 18.8462 7.62909 19.6847 6.07034C19.7812 6.43052 19.8777 6.78767 19.9742 7.14785C20.0647 7.47776 20.5775 7.34156 20.487 7.01165L20.0376 5.34696V5.34091Z" fill="#3C3C3B"/>
<path d="M95.3018 7.10918C92.7169 4.43358 89.598 2.1696 86.5576 0.047888C86.4068 -0.0580465 86.259 0.026701 86.1987 0.156849C86.1896 0.156849 86.1806 0.156849 86.1715 0.156849C85.9121 0.22949 85.5773 0.501893 85.517 0.777323C85.511 0.80759 85.523 0.837857 85.5441 0.86207C85.4476 0.955898 85.4175 1.14053 85.5622 1.24646C85.5894 1.26765 85.6165 1.28581 85.6437 1.307C85.0977 1.74587 84.3708 1.8518 83.9153 2.42385C83.6801 2.72046 83.659 2.89601 83.2246 2.98076C83.0738 3.01103 82.9381 2.95049 82.7903 3.02011C82.5037 3.15026 82.3891 3.70414 82.0875 3.72533C82.0241 3.72836 81.9909 3.77376 81.9849 3.81916C81.9759 3.81916 81.9668 3.81916 81.9578 3.81916C81.7889 3.86456 81.638 4.00681 81.5264 4.13999C81.4239 4.26105 81.3545 4.40028 81.3032 4.54859C81.1162 4.44266 80.9292 4.33067 80.7392 4.22776C80.697 4.20355 80.6608 4.2096 80.6306 4.22776C80.5884 4.20657 80.5311 4.20657 80.4888 4.24592C80.4134 4.30948 80.3622 4.39423 80.2807 4.45476C80.2083 4.50924 80.1239 4.55162 80.0424 4.58794C79.961 4.62123 80.0123 4.71809 80.0816 4.73019C80.0816 4.73019 80.0816 4.73625 80.0816 4.73927C76.2902 8.38645 72.9933 12.7419 69.775 16.8945C69.0299 17.857 68.3905 18.7559 69.3255 19.8183C69.971 20.5538 71.1021 20.9866 71.9346 21.4497C73.1381 22.1216 74.3416 22.7905 75.5451 23.4624C77.4635 24.5309 79.4693 25.9837 81.6833 26.3348C83.481 26.6193 84.7267 25.8293 85.9966 24.6519C89.9419 20.9896 93.8058 17.1366 97.359 13.0899C97.4283 13.0112 97.4313 12.9235 97.4042 12.8478C97.4494 12.7146 97.4796 12.5754 97.5068 12.4392C98.4931 10.6565 96.4691 8.31986 95.3079 7.11826L95.3018 7.10918ZM81.7044 4.28527C81.81 4.17631 81.9336 4.12788 82.0543 4.04616C82.0935 4.01892 82.1086 3.97957 82.1086 3.94022C82.3982 3.9493 82.4253 3.75862 82.6183 3.58005C83.0316 3.19868 83.5202 3.38028 83.8942 2.99287C84.045 2.83548 84.1355 2.62966 84.2863 2.47227C84.5397 2.21198 84.8775 2.12118 85.1943 1.9759C85.4778 1.84575 85.7221 1.72771 85.891 1.48557C87.746 2.8264 89.5649 4.21263 91.3264 5.67755C92.1951 6.40093 93.0517 7.13642 93.8963 7.88401C94.406 8.33802 95.8689 9.41855 96.2218 10.4325C95.4677 10.5505 94.8192 11.1922 94.5025 11.8762C93.474 11.5826 92.2675 10.7261 91.6823 10.4174C90.4185 9.75149 89.1607 9.07048 87.9119 8.37737C85.7462 7.17577 83.6409 5.86823 81.4872 4.64545C81.5355 4.50924 81.6079 4.38515 81.7074 4.28224L81.7044 4.28527ZM96.2972 10.7624C96.3304 11.1407 96.1675 11.4949 95.7 11.7915C95.6668 11.8127 95.6517 11.8399 95.6457 11.8702C95.4074 11.9912 95.1148 12.0034 94.7951 11.9458C95.1571 11.3647 95.6578 11.0439 96.2972 10.7624ZM88.117 21.8553C86.6934 23.2445 84.968 25.5357 82.9049 25.8112C80.6728 26.1108 78.4378 24.4552 76.5858 23.4201C74.782 22.4122 72.9722 21.4134 71.1715 20.3994C70.8367 20.2118 69.8775 19.7668 69.7026 19.4248C69.2441 18.5168 69.8172 17.7026 70.327 17.0428C70.9664 16.2165 71.6149 15.3993 72.2694 14.5851C74.8846 11.3284 77.7712 8.28657 80.3591 5.01168C80.3622 5.00562 80.3652 4.99957 80.3682 4.99352C83.4267 7.31499 86.8291 9.24603 90.1621 11.1317C91.5496 11.9186 94.3879 14.116 96.3093 13.4592C93.5976 16.2771 90.9192 19.1222 88.117 21.8522V21.8553ZM94.7016 12.9325C93.3684 12.5724 92.0895 11.6734 90.892 11.0015C89.7428 10.3568 88.5996 9.70003 87.4685 9.02811C85.0676 7.60556 82.742 6.04681 80.3199 4.66663C80.4496 4.61518 80.5733 4.53951 80.6517 4.43358C83.6921 6.52805 86.9889 8.31986 90.2284 10.0753C91.5647 10.7987 92.9612 11.737 94.397 12.2364C95.0786 12.4755 95.6759 12.5149 96.1193 11.9126C96.1494 11.8702 96.1524 11.8278 96.1404 11.7885C97.8506 10.5354 94.8886 8.19274 93.9958 7.39066C91.3897 5.05405 88.6479 2.86877 85.7945 0.84391C85.7704 0.828777 85.7492 0.819696 85.7281 0.813643C85.8005 0.753109 85.8669 0.686522 85.9393 0.632041C86.0298 0.5594 86.1353 0.514 86.2349 0.456492C86.25 0.474653 86.265 0.49584 86.2892 0.510973C88.7384 2.22106 91.1122 4.04011 93.3563 6.01351C94.409 6.93968 95.4677 7.91125 96.2912 9.05535C96.7617 9.70911 97.2323 10.4567 97.2383 11.2981C97.2443 12.6904 95.8749 13.2443 94.7076 12.9295L94.7016 12.9325Z" fill="#3C3C3B"/>
<path d="M92.6475 14.4338C89.402 17.9569 85.9121 21.2802 82.742 24.8699C82.6606 24.9607 82.7842 25.0848 82.8747 25.003C86.4611 21.8613 89.6885 18.2081 92.922 14.7092C93.0909 14.5246 92.8164 14.2492 92.6475 14.4338Z" fill="#3C3C3B"/>
<path d="M89.7428 13.3139C87.2122 11.7491 84.597 9.97546 81.8643 8.789C81.3183 8.55291 81.1977 8.45001 80.7482 8.82532C79.786 9.63345 79.038 11.283 78.3382 12.3333C78.299 12.3938 78.305 12.4483 78.3322 12.4937C78.305 12.5542 78.3141 12.6299 78.3865 12.6601C81.3213 13.9435 84.1838 15.4054 86.9256 17.07C87.0131 17.1245 87.1669 17.1154 87.2363 17.0307C88.0809 15.9774 88.9465 14.9362 89.7458 13.8496C89.776 13.8103 89.782 13.7679 89.782 13.7255C89.8876 13.6166 89.9148 13.4168 89.7458 13.3139H89.7428ZM87.2272 16.2195C86.3947 16.61 84.9831 15.3448 84.229 14.9453C82.4223 13.9919 80.5582 13.1868 78.6459 12.4725C79.2612 11.6523 79.8373 10.5233 80.5884 9.83926C81.7135 8.81321 82.8506 9.87558 83.9274 10.4809C85.7402 11.4979 87.5289 12.5603 89.2994 13.6529C88.9556 14.0555 88.6238 14.4701 88.292 14.8848C88.0929 15.133 87.5108 16.0894 87.2272 16.2226V16.2195Z" fill="#3C3C3B"/>
<path d="M92.2946 8.68004C89.3477 6.70663 86.0479 5.22052 82.7028 4.0734C82.6183 4.04616 82.5852 4.17631 82.6666 4.20355C86.0207 5.44147 89.1154 7.05167 92.1981 8.84045C92.3037 8.90099 92.3941 8.7436 92.2946 8.67701V8.68004Z" fill="#3C3C3B"/>
<path d="M94.1888 10.6262C91.6763 8.93428 88.9646 7.51173 86.259 6.15879C86.1866 6.12247 86.1233 6.22841 86.1957 6.26776C88.8832 7.68728 91.4621 9.27327 94.0863 10.8018C94.2009 10.8683 94.2974 10.6988 94.1888 10.6262Z" fill="#3C3C3B"/>
<path d="M94.5689 9.46092C91.8542 7.06983 88.8832 4.92995 86.0509 2.68112C85.9694 2.61756 85.8548 2.72954 85.9363 2.79613C88.7474 5.08432 91.4832 7.52686 94.409 9.66977C94.5297 9.75754 94.6835 9.56081 94.5689 9.46092Z" fill="#3C3C3B"/>
<path d="M62.9437 25.0447C62.2167 24.4666 61.4567 23.9369 60.6483 23.4799C60.9982 23.1651 61.345 22.8473 61.698 22.5356C61.8367 22.4115 61.7583 22.1754 61.5924 22.13C60.7116 21.8818 59.8248 21.6457 58.9411 21.4066C58.561 21.3037 57.5898 20.8255 57.1976 21.0676C56.8146 21.3037 57.0951 21.9332 57.1584 22.245C57.3605 23.2408 57.451 24.2456 57.5475 25.2535C57.5415 25.2566 57.5355 25.2626 57.5325 25.2656C57.4148 25.3595 57.5686 25.5623 57.6953 25.4775C57.8944 25.3413 58.0935 25.2051 58.2926 25.0659C58.3981 24.9932 58.5037 24.9267 58.6123 24.854C59.0074 25.7529 59.4568 26.6277 59.9364 27.4842C59.9998 27.5992 60.1989 27.6446 60.2863 27.5296C60.9982 26.6186 61.8608 25.9164 62.9015 25.414C63.0281 25.3534 63.0613 25.1355 62.9497 25.0447H62.9437ZM60.1566 26.9788C59.7102 26.213 59.2849 25.4351 58.8657 24.6543C58.9863 24.512 58.7963 24.2789 58.6274 24.3849C58.4343 24.5059 58.2684 24.6724 58.0905 24.8147C58.0151 24.8752 57.9427 24.9357 57.8673 24.9963C57.8763 24.4666 57.8522 23.9369 57.7979 23.4103C57.7617 23.0592 57.4389 21.9272 57.635 21.7062C57.8341 21.4823 59.11 21.9786 59.4297 22.0634C59.9636 22.2057 60.4975 22.3479 61.0313 22.4871C60.778 22.7172 60.5246 22.9502 60.2682 23.1802C60.1536 23.2832 60.1808 23.4224 60.2682 23.5071C60.1928 23.61 60.1838 23.7674 60.3286 23.8491C61.0253 24.2578 61.6979 24.6936 62.3404 25.1779C61.4928 25.641 60.7719 26.2372 60.1536 26.9818L60.1566 26.9788Z" fill="#3C3C3B"/>
</svg>
